massMuscle_states
version=1
nRows=27
nColumns=15
inDegrees=yes

# SIMM Motion File Header:
name massMuscle_states
datacolumns 15
datarows 27
otherdata 1
range 0.95182696 0.95235479
endheader
time	massToGround_xRotation	massToGround_yRotation	massToGround_zRotation	massToGround_xTranslation	massToGround_yTranslation	massToGround_zTranslation	massToGround_xRotation_u	massToGround_yRotation_u	massToGround_zRotation_u	massToGround_xTranslation_u	massToGround_yTranslation_u	massToGround_zTranslation_u	muscle.activation	muscle.fiber_length
      0.95182696	      0.00000000	      0.00000000	      0.00000000	     -0.12559339	     -4.37308491	     -0.12559339	      0.00000000	      0.00000000	      0.00000000	     -0.79287662	     -7.25789789	     -0.79287662	      0.11448583	      2.02435275
      0.95185001	      0.00000000	      0.00000000	      0.00000000	     -0.12561167	     -4.37325221	     -0.12561167	      0.00000000	      0.00000000	      0.00000000	     -0.79305307	     -7.25744327	     -0.79305307	      0.11446530	      2.02435945
      0.95187509	      0.00000000	      0.00000000	      0.00000000	     -0.12563156	     -4.37343420	     -0.12563156	      0.00000000	      0.00000000	      0.00000000	     -0.79324505	     -7.25694853	     -0.79324505	      0.11444296	      2.02445499
      0.95188144	      0.00000000	      0.00000000	      0.00000000	     -0.12563660	     -4.37348033	     -0.12563660	      0.00000000	      0.00000000	      0.00000000	     -0.79329371	     -7.25682313	     -0.79329371	      0.11443729	      2.02442217
      0.95189136	      0.00000000	      0.00000000	      0.00000000	     -0.12564447	     -4.37355230	     -0.12564447	      0.00000000	      0.00000000	      0.00000000	     -0.79336964	     -7.25662743	     -0.79336964	      0.11442846	      2.02441731
      0.95193223	      0.00000000	      0.00000000	      0.00000000	     -0.12567690	     -4.37384886	     -0.12567690	      0.00000000	      0.00000000	      0.00000000	     -0.79368258	     -7.25582072	     -0.79368258	      0.11439205	      2.02442810
      0.95195320	      0.00000000	      0.00000000	      0.00000000	     -0.12569354	     -4.37400098	     -0.12569354	      0.00000000	      0.00000000	      0.00000000	     -0.79384315	     -7.25540671	     -0.79384315	      0.11437337	      2.02448476
      0.95197416	      0.00000000	      0.00000000	      0.00000000	     -0.12571019	     -4.37415310	     -0.12571019	      0.00000000	      0.00000000	      0.00000000	     -0.79400372	     -7.25499263	     -0.79400372	      0.11435469	      2.02447937
      0.95199453	      0.00000000	      0.00000000	      0.00000000	     -0.12572636	     -4.37430086	     -0.12572636	      0.00000000	      0.00000000	      0.00000000	     -0.79415974	     -7.25459024	     -0.79415974	      0.11433655	      2.02448657
      0.95201884	      0.00000000	      0.00000000	      0.00000000	     -0.12574567	     -4.37447717	     -0.12574567	      0.00000000	      0.00000000	      0.00000000	     -0.79434592	     -7.25410997	     -0.79434592	      0.11431490	      2.02457532
      0.95202595	      0.00000000	      0.00000000	      0.00000000	     -0.12575132	     -4.37452879	     -0.12575132	      0.00000000	      0.00000000	      0.00000000	     -0.79440044	     -7.25396933	     -0.79440044	      0.11430856	      2.02454950
      0.95204028	      0.00000000	      0.00000000	      0.00000000	     -0.12576270	     -4.37463270	     -0.12576270	      0.00000000	      0.00000000	      0.00000000	     -0.79451018	     -7.25368621	     -0.79451018	      0.11429580	      2.02454390
      0.95206735	      0.00000000	      0.00000000	      0.00000000	     -0.12578421	     -4.37482910	     -0.12578421	      0.00000000	      0.00000000	      0.00000000	     -0.79471765	     -7.25315085	     -0.79471765	      0.11427168	      2.02455318
      0.95209066	      0.00000000	      0.00000000	      0.00000000	     -0.12580274	     -4.37499812	     -0.12580274	      0.00000000	      0.00000000	      0.00000000	     -0.79489623	     -7.25268996	     -0.79489623	      0.11425092	      2.02456872
      0.95211396	      0.00000000	      0.00000000	      0.00000000	     -0.12582126	     -4.37516713	     -0.12582126	      0.00000000	      0.00000000	      0.00000000	     -0.79507483	     -7.25222894	     -0.79507483	      0.11423016	      2.02463930
      0.95213727	      0.00000000	      0.00000000	      0.00000000	     -0.12583979	     -4.37533613	     -0.12583979	      0.00000000	      0.00000000	      0.00000000	     -0.79525345	     -7.25176782	     -0.79525345	      0.11420940	      2.02465606
      0.95216057	      0.00000000	      0.00000000	      0.00000000	     -0.12585833	     -4.37550512	     -0.12585833	      0.00000000	      0.00000000	      0.00000000	     -0.79543208	     -7.25130658	     -0.79543208	      0.11418864	      2.02465369
      0.95219297	      0.00000000	      0.00000000	      0.00000000	     -0.12588410	     -4.37574004	     -0.12588410	      0.00000000	      0.00000000	      0.00000000	     -0.79568048	     -7.25066509	     -0.79568048	      0.11415978	      2.02466816
      0.95221187	      0.00000000	      0.00000000	      0.00000000	     -0.12589915	     -4.37587712	     -0.12589915	      0.00000000	      0.00000000	      0.00000000	     -0.79582544	     -7.25029065	     -0.79582544	      0.11414294	      2.02468182
      0.95223106	      0.00000000	      0.00000000	      0.00000000	     -0.12591442	     -4.37601622	     -0.12591442	      0.00000000	      0.00000000	      0.00000000	     -0.79597257	     -7.24991056	     -0.79597257	      0.11412585	      2.02468841
      0.95225025	      0.00000000	      0.00000000	      0.00000000	     -0.12592969	     -4.37615532	     -0.12592969	      0.00000000	      0.00000000	      0.00000000	     -0.79611971	     -7.24953038	     -0.79611971	      0.11410876	      2.02473460
      0.95226943	      0.00000000	      0.00000000	      0.00000000	     -0.12594497	     -4.37629441	     -0.12594497	      0.00000000	      0.00000000	      0.00000000	     -0.79626687	     -7.24915013	     -0.79626687	      0.11409167	      2.02473433
      0.95228282	      0.00000000	      0.00000000	      0.00000000	     -0.12595563	     -4.37639148	     -0.12595563	      0.00000000	      0.00000000	      0.00000000	     -0.79636957	     -7.24888469	     -0.79636957	      0.11407974	      2.02474168
      0.95230918	      0.00000000	      0.00000000	      0.00000000	     -0.12597662	     -4.37658255	     -0.12597662	      0.00000000	      0.00000000	      0.00000000	     -0.79657178	     -7.24836204	     -0.79657178	      0.11405626	      2.02482459
      0.95231665	      0.00000000	      0.00000000	      0.00000000	     -0.12598257	     -4.37663664	     -0.12598257	      0.00000000	      0.00000000	      0.00000000	     -0.79662902	     -7.24821408	     -0.79662902	      0.11404962	      2.02480194
      0.95232847	      0.00000000	      0.00000000	      0.00000000	     -0.12599199	     -4.37672235	     -0.12599199	      0.00000000	      0.00000000	      0.00000000	     -0.79671974	     -7.24797955	     -0.79671974	      0.11403908	      2.02479786
      0.95235479	      0.00000000	      0.00000000	      0.00000000	     -0.12601296	     -4.37691309	     -0.12601296	      0.00000000	      0.00000000	      0.00000000	     -0.79692167	     -7.24745748	     -0.79692167	      0.11401564	      2.02480743
